<svg
	width="100"
   height="22" id="_" data-name="ͼ" xmlns="http://www.w3.org/2000/svg" xmlns:xlink="http://www.w3.org/1999/xlink" viewBox="0 0 731.85 167.58"><defs><style>.cls-1,.cls-10,.cls-11,.cls-12,.cls-13,.cls-14,.cls-2,.cls-3,.cls-4,.cls-5,.cls-6,.cls-7,.cls-8,.cls-9{fill-rule:evenodd;}.cls-1{fill:url(#GradientFill_1);}.cls-2{fill:url(#GradientFill_1-2);}.cls-3{fill:url(#GradientFill_1-3);}.cls-4{fill:url(#未命名的渐变_3);}.cls-5{fill:url(#GradientFill_1-4);}.cls-6{fill:url(#GradientFill_1-5);}.cls-7{fill:url(#GradientFill_1-6);}.cls-8{fill:url(#GradientFill_1-7);}.cls-9{fill:url(#GradientFill_1-8);}.cls-10{fill:url(#GradientFill_1-9);}.cls-11{fill:url(#GradientFill_1-10);}.cls-12{fill:url(#GradientFill_1-11);}.cls-13{fill:url(#GradientFill_1-12);}.cls-14{fill:#6c2f8d;}</style><linearGradient id="GradientFill_1" x1="-60.82" y1="167.71" x2="165.84" y2="152.89" gradientUnits="userSpaceOnUse"><stop offset="0" stop-color="#904496"/><stop offset="1" stop-color="#501b86"/></linearGradient><linearGradient id="GradientFill_1-2" x1="-28.01" y1="74.67" x2="75.02" y2="74.24" xlink:href="#GradientFill_1"/><linearGradient id="GradientFill_1-3" x1="-23.9" y1="139.54" x2="146.64" y2="131.04" xlink:href="#GradientFill_1"/><linearGradient id="未命名的渐变_3" x1="147.06" y1="116.29" x2="167.05" y2="108.41" gradientUnits="userSpaceOnUse"><stop offset="0" stop-color="#904496"/><stop offset="0.64" stop-color="#501b86"/></linearGradient><linearGradient id="GradientFill_1-4" x1="110.15" y1="101.62" x2="146.86" y2="101.39" xlink:href="#GradientFill_1"/><linearGradient id="GradientFill_1-5" x1="93.14" y1="109.71" x2="119.23" y2="109.46" xlink:href="#GradientFill_1"/><linearGradient id="GradientFill_1-6" x1="74.82" y1="99.43" x2="101.31" y2="99.27" xlink:href="#GradientFill_1"/><linearGradient id="GradientFill_1-7" x1="96.74" y1="92.38" x2="121.77" y2="92.02" xlink:href="#GradientFill_1"/><linearGradient id="GradientFill_1-8" x1="94.75" y1="69.02" x2="130.88" y2="68.75" xlink:href="#GradientFill_1"/><linearGradient id="GradientFill_1-9" x1="73.04" y1="61.87" x2="110.65" y2="61.68" xlink:href="#GradientFill_1"/><linearGradient id="GradientFill_1-10" x1="103.15" y1="43.25" x2="130.21" y2="42.98" xlink:href="#GradientFill_1"/><linearGradient id="GradientFill_1-11" x1="-3.3" y1="70.85" x2="97.54" y2="70.38" xlink:href="#GradientFill_1"/><linearGradient id="GradientFill_1-12" x1="70.97" y1="8.93" x2="102.75" y2="8.61" xlink:href="#GradientFill_1"/></defs><title>Liliac-Virus-Killer-1</title><polygon class="cls-1" points="0 148.35 11.25 167.25 176.44 167.58 186.94 148.23 0 148.35"/><polygon class="cls-2" points="0.37 142.38 74.96 6.33 84.49 20.13 16.9 142.38 0.37 142.38"/><polygon class="cls-3" points="22.91 143.13 32.81 124.08 154.01 124.23 163.31 142.84 22.91 143.13"/><polygon class="cls-4" points="169.57 143.06 186.64 142.76 154.05 77.77 137.55 77.96 169.57 143.06"/><polygon class="cls-5" points="135.34 85.16 120.26 117.86 150.41 117.49 135.34 85.16"/><polygon class="cls-6" points="108.41 102.07 100.31 115.24 110.51 117.04 119.77 106.09 121.61 102.41 108.41 102.07"/><polygon class="cls-7" points="95.77 111.6 103.8 99.15 97.35 87 81.97 87.15 95.77 111.6"/><polygon class="cls-8" points="103.5 87.3 108.97 96.82 124.2 96.97 118.5 87.3 103.5 87.3"/><polygon class="cls-9" points="104.7 81.75 120.07 81.75 134.17 55.8 118.72 56.25 104.7 81.75"/><polygon class="cls-10" points="114.15 53.55 98.4 82.05 83.4 81.75 105.9 41.4 114.15 53.55"/><polygon class="cls-11" points="110.47 37.73 118.72 50.85 132.82 50.33 120.52 35.33 110.47 37.73"/><polygon class="cls-12" points="106.8 22.05 53.77 118.88 36.3 118.72 89.55 22.88 106.8 22.05"/><polygon class="cls-13" points="79.57 2.55 88.8 17.48 105.82 16.88 91.35 0 79.57 2.55"/><path class="cls-14" d="M229,392.15V421H242v9.11H218.61v-38Zm28.08,14.63v23.34H246.69V406.78Zm0-14.63v9.1H246.69v-9.1Zm17.83,0V421h12.92v9.11H264.52v-38ZM303,406.78v23.34H292.61V406.78Zm0-14.63v9.1H292.61v-9.1Zm28.21,0,11.87,38H307.41l7.69-23.34h9.46L320.5,421h9.75L320,392.15Zm39.93,0v9.1h-3.84a13.72,13.72,0,0,0-4.64.67,8.6,8.6,0,0,0-3.34,2.18,9.72,9.72,0,0,0-2.81,7.07,9.57,9.57,0,0,0,2.69,6.8,9.15,9.15,0,0,0,3.52,2.36,15.58,15.58,0,0,0,5,.68h3.39v9.11H366a21.85,21.85,0,0,1-11.32-2.65,18.13,18.13,0,0,1-7.84-9.68,18.88,18.88,0,0,1-1.17-6.54,19.58,19.58,0,0,1,2-8.48,18.74,18.74,0,0,1,3.9-5.51,17.05,17.05,0,0,1,8.39-4.48,29.67,29.67,0,0,1,6.48-.63Zm26.37,16.56v8.94H375.1v-8.94Zm39-16.37-12.59,37.78H412.6l-11.87-38h11l4.75,17.39c.51,1.89,1.13,5.1,1.89,9.63q.87-5.34,1.92-9.26l5.17-17.76,11,.19Zm14.77,14.44v23.34H440.85V406.78Zm0-14.63v9.1H440.85v-9.1Zm6.27,0h13q5.79,0,8.3,1.05a9,9,0,0,1,5.05,5.05,10.56,10.56,0,0,1,.8,4.11,9.37,9.37,0,0,1-2.26,6.49,7.64,7.64,0,0,1-2.27,1.8,16.38,16.38,0,0,1-3.47,1.13,11.92,11.92,0,0,1,2.75.87,5.8,5.8,0,0,1,1.73,1.4,9.14,9.14,0,0,1,1.82,6v10H472.57V421.2c0-2-.44-3.42-1.32-4.18s-2.51-1.14-4.88-1.14h-8.83v-9.1h12.28c1.75,0,2.89-.32,3.41-.95a2.83,2.83,0,0,0,.65-1.83,2.43,2.43,0,0,0-.89-2.07,4.57,4.57,0,0,0-2.79-.68H457.54v-9.1Zm64.34,0v38H504.15q-5.13,0-7.49-1.62a9,9,0,0,1-3.57-4.19,18.15,18.15,0,0,1-1.1-6.92V392.15h10.42v24.08c0,2,.27,3.25.83,3.86s1.73.92,3.52.92h4.7V392.15Zm18.53,0a13.74,13.74,0,0,0-.29,2.41,5.18,5.18,0,0,0,.71,2.51,21.86,21.86,0,0,0,2.55,3.37c2.48,2.83,4.2,4.85,5.14,6a25.47,25.47,0,0,1,2.27,3.41,14.34,14.34,0,0,1,2,7.07,13.54,13.54,0,0,1-1.83,6.84q-3.63,6.31-13,6.32h-10.5V421h9.31c2,0,3.34-.5,4.17-1.47a4,4,0,0,0,1-2.59,6.1,6.1,0,0,0-1.13-3.39q-1.14-1.71-5.74-7c-2.59-3-4.23-5.25-4.87-6.84a10.52,10.52,0,0,1-.89-4,22,22,0,0,1,.39-3.55Zm38.36,16.56v8.94H556.34v-8.94Zm28.07-16.56-15.06,18.09,16.09,19.88h-13.4l-12.14-15.26V406.8l12.14-14.65Zm16.22,14.63v23.34H612.64V406.78Zm0-14.63v9.1H612.64v-9.1Zm17.83,0V421h12.92v9.11H630.47v-38Zm28.08,0V421h12.92v9.11H658.55v-38Zm43.23,14.63v9.1H697.06V421H712.2v9.11H686.64V406.78Zm0-14.63v9.1H686.64v-9.1Zm6.25,0h13q5.79,0,8.3,1.05a9,9,0,0,1,5,5.05,10.57,10.57,0,0,1,.81,4.11,9.37,9.37,0,0,1-2.26,6.49,7.56,7.56,0,0,1-2.28,1.8,16.07,16.07,0,0,1-3.46,1.13,11.66,11.66,0,0,1,2.74.87,5.72,5.72,0,0,1,1.74,1.4,9.19,9.19,0,0,1,1.81,6v10H733.48V421.2c0-2-.43-3.42-1.32-4.18s-2.5-1.14-4.87-1.14h-8.84v-9.1h12.28c1.76,0,2.89-.32,3.42-.95a2.87,2.87,0,0,0,.64-1.83,2.42,2.42,0,0,0-.88-2.07,4.62,4.62,0,0,0-2.79-.68H718.45Z" transform="translate(-13.76 -311.06)"/></svg>